<svg xmlns="http://www.w3.org/2000/svg" viewBox="0 0 290.7 344.69"><defs><style>.cls-1{font-size:75px;font-family:MeriendaOne-Regular, Merienda One;}.cls-1,.cls-2{fill:#3e3a5b;}</style></defs><title>logo-alt</title><g id="Layer_2" data-name="Layer 2"><g id="alt-logo"><text id="text" class="cls-1" transform="translate(0 238.04)">Mariam<tspan x="10.73" y="81">Khalifa</tspan></text><g id="butterfy"><g id="wings"><path class="cls-2" d="M112.76,41.77c-2.25-.59-4.43-1.24-6.57-1.76-1.07-.26-2.13-.5-3.15-.65a10.4,10.4,0,0,0-2.77-.15,1.6,1.6,0,0,0-.79.25c-.13.1,0,.14.13.1s.13,0,.14.17a6.57,6.57,0,0,0,.11.87,15.66,15.66,0,0,0,.71,2.53c.32.92.7,1.86,1.11,2.81,1.66,3.8,3.7,7.67,5.48,11.68s3.47,8.19,5.3,12.29c.88,2.07,1.88,4.08,2.79,6.14s1.41,4.38,2.6,6.28a13.51,13.51,0,0,0,1.05,1.16,1.91,1.91,0,0,0,.46.34c.06,0,.09,0,.06,0a.34.34,0,0,0-.25,0c-.16,0-.08,0,0-.17a5,5,0,0,0,.15-.61,13.46,13.46,0,0,0,.17-1.5,57.65,57.65,0,0,0-.07-6.56c-.49-8.91-1.5-17.94-1.58-27.16a109,109,0,0,1,.68-14,55.65,55.65,0,0,1,3.6-14.59,29.76,29.76,0,0,1,4.49-7.53,21.29,21.29,0,0,1,3.74-3.49,17.25,17.25,0,0,1,2.35-1.42l1.67-.82a73.3,73.3,0,0,1,6.88-2.88,66,66,0,0,1,7.33-2,49.23,49.23,0,0,1,7.72-1,40.64,40.64,0,0,1,7.93.33,42.67,42.67,0,0,1,7.85,1.86,40.38,40.38,0,0,1,13.72,8.1A44.53,44.53,0,0,1,191.08,16a60.56,60.56,0,0,1,7.73,12.65c1,2.24,1.89,4.33,2.73,6.46s1.63,4.28,2.4,6.45Q206.27,48,208,54.73a99.65,99.65,0,0,1,2.63,13.77,41.21,41.21,0,0,1-.56,14.62,17,17,0,0,1-1.47,3.78,8,8,0,0,1-.55.92,9.1,9.1,0,0,1-.63.9,11.38,11.38,0,0,1-1.5,1.58,28.3,28.3,0,0,1-3,2.23c-1,.66-2,1.26-3,1.85-3.94,2.33-8,4.32-11.55,6.71a29.54,29.54,0,0,0-2.51,1.83,6.26,6.26,0,0,0-1.57,1.73c-.07.21,0,0-.08-.05s.17.23.5.45a10.56,10.56,0,0,0,2.59,1.15c4,1.23,8.59,1.36,13.21,2a31.17,31.17,0,0,1,7.2,1.72,16.49,16.49,0,0,1,3.87,2.1,10.78,10.78,0,0,1,2,1.88,10.22,10.22,0,0,1,.9,1.3q.21.36.39.75a7.67,7.67,0,0,1,.31.76,19,19,0,0,1,.63,8.8,30.18,30.18,0,0,1-2.17,7.51,34.53,34.53,0,0,1-3.7,6.61,29.78,29.78,0,0,1-5.16,5.68c-1,.86-2,1.57-3,2.26s-2,1.36-3.13,2a31.86,31.86,0,0,1-7,2.87,24.2,24.2,0,0,1-15-.7,35.88,35.88,0,0,1-11.92-7.88A68.54,68.54,0,0,1,156,133.22a109.45,109.45,0,0,1-6.84-11.67c2.75,3.55,5.55,7,8.55,10.33a71.12,71.12,0,0,0,9.58,9,31.65,31.65,0,0,0,11,5.75,18.91,18.91,0,0,0,11.42-.48,24.47,24.47,0,0,0,5.24-2.68c.84-.55,1.66-1.14,2.45-1.77a21.94,21.94,0,0,0,2.22-2,27.51,27.51,0,0,0,5.92-9.86,23.47,23.47,0,0,0,1.24-5.45,9.81,9.81,0,0,0-.45-4.47c0-.1,0,0,0,0h0s0,0-.06-.07-.23-.25-.44-.44a13.14,13.14,0,0,0-1.92-1.3c-1.58-.91-3.49-1.82-5.46-2.73s-4.05-1.78-6.16-2.63-4.27-1.65-6.48-2.6a19,19,0,0,1-3.44-1.79,8,8,0,0,1-.89-.73,4.44,4.44,0,0,1-.92-1.2,3.86,3.86,0,0,1-.43-1.74,4.29,4.29,0,0,1,.3-1.56,7.44,7.44,0,0,1,1.25-2,15.28,15.28,0,0,1,1.38-1.4,34.85,34.85,0,0,1,2.84-2.22c3.83-2.65,7.69-4.93,11.33-7.38a31.14,31.14,0,0,0,4.87-3.83,4.81,4.81,0,0,0,.4-.47,3.25,3.25,0,0,0,.32-.45,2.72,2.72,0,0,0,.29-.5,3.47,3.47,0,0,0,.26-.55,11.49,11.49,0,0,0,.73-2.55c.61-3.73,0-8-.83-12.09a94,94,0,0,0-3.74-12.31c-1.53-4.06-3.25-8.06-5.07-12q-1.37-3-2.83-5.92l-1.45-2.95c-.49-1-1-1.85-1.46-2.78-3.95-7.22-9.3-13.35-15.76-16.55s-13.89-3.43-21.34-1.72a63,63,0,0,0-11.14,3.81l-1.36.63c-.17.08-.34.18-.53.29a5.73,5.73,0,0,0-1.24,1A15.77,15.77,0,0,0,134.83,25a57.51,57.51,0,0,0-3.94,11.13c-1.08,4.05-2,8.29-2.84,12.6s-1.6,8.69-2.34,13.11l-2.13,13.38c-.4,2.25-.75,4.5-1.36,6.8a15.19,15.19,0,0,1-.58,1.77,6.06,6.06,0,0,1-.48,1,2.48,2.48,0,0,1-1.15,1,1.79,1.79,0,0,1-1.07,0,2.32,2.32,0,0,1-.69-.37,3.88,3.88,0,0,1-.74-.82A9.22,9.22,0,0,1,116.7,83c-1-2-2.79-3.54-4.19-5.31s-2.67-3.62-4.05-5.42c-2.72-3.61-5.52-7.2-7.95-11.08a57.27,57.27,0,0,1-5.92-12.62,25.21,25.21,0,0,1-1.37-7.66,10.53,10.53,0,0,1,.33-2.48,6.38,6.38,0,0,1,1.56-2.83,5.54,5.54,0,0,1,3-1.57,7.15,7.15,0,0,1,2.54,0,13.4,13.4,0,0,1,3.76,1.31,25.21,25.21,0,0,1,3.08,1.87A36,36,0,0,1,112.76,41.77Z"/></g><g id="antenna"><path class="cls-2" d="M72.22,87.06a10.28,10.28,0,0,1-2.07-1.57,4.67,4.67,0,0,1-1.46-2.59A3,3,0,0,1,69,81a3.88,3.88,0,0,1,1.3-1.31,7.5,7.5,0,0,1,2.88-1,16.51,16.51,0,0,1,5.41.22,18.92,18.92,0,0,1,5,1.62,40.72,40.72,0,0,1,8.31,6,10.31,10.31,0,0,0,1.94,1.33,2.19,2.19,0,0,0,.46.17c.16.07.18,0,0,.1s0,.08-.09-.06a2.83,2.83,0,0,0-.16-.46,10.61,10.61,0,0,0-1.15-2c-.45-.67-1-1.3-1.47-1.94-1-1.26-2.12-2.47-3.18-3.7L85,76.22c-2.14-2.43-4.38-4.77-6.59-7a31.73,31.73,0,0,0-3.31-3.06l-.38-.27a3.07,3.07,0,0,0-.38-.21c-.32-.13-.64-.3-1-.42a8.82,8.82,0,0,0-2-.54,6.86,6.86,0,0,0-2,0,3.75,3.75,0,0,0-1.62.72,1.88,1.88,0,0,0-.67,1.55A4.45,4.45,0,0,0,68,69l-.28.3a4.74,4.74,0,0,1-1.81-2,3.45,3.45,0,0,1,.32-3.11,5.35,5.35,0,0,1,2.42-2,8.08,8.08,0,0,1,2.91-.62,11.54,11.54,0,0,1,2.88.27c.46.11.9.26,1.36.39a6.88,6.88,0,0,1,.75.3c.24.11.47.23.68.35a23.26,23.26,0,0,1,4.24,3.29A59,59,0,0,1,88,73.86c1,1.35,2,2.72,2.83,4.15s1.68,2.92,2.44,4.42a36.61,36.61,0,0,1,2.07,4.71,5,5,0,0,1,.15.73,1.84,1.84,0,0,1,0,.47,1.18,1.18,0,0,1-.08.31,1.2,1.2,0,0,1-.23.34,1,1,0,0,1-.7.28A1.57,1.57,0,0,1,94,89.2a3.67,3.67,0,0,1-.69-.28,21.42,21.42,0,0,1-2.18-1.4,29.23,29.23,0,0,0-8.75-3.88c-1.5-.45-3-.88-4.48-1.24a19.53,19.53,0,0,0-4.41-.59,6.48,6.48,0,0,0-1.87.24c-.5.21-.68.29-.79.73a3.45,3.45,0,0,0,.47,1.89,19,19,0,0,0,1.22,2.1Z"/></g><path id="body" class="cls-2" d="M106.89,99.75c3.1,2.09,5.5-3.82,7.29-2.45s7.41,12.52,14.14,16.75,5.51,6,6.61,9.1,3.22,9.54,5.51,12.36c6.75,8.31,14.55,15.87,4.49-4.82-4.42-9.09-5.06-17.82-11.84-24.8s-15.16-14.38-25.44-15.24c-4.06-.34-6.5-.54-4.61,3A53.78,53.78,0,0,0,106.89,99.75Z"/></g></g></g></svg>