<svg xmlns="http://www.w3.org/2000/svg" viewBox="0 0 15.23 16.36"><defs><style>.cls-1{fill:#337961;}</style></defs><g id="Layer_2" data-name="Layer 2"><g id="Layer_1-2" data-name="Layer 1"><path class="cls-1" d="M15.23.26A18.69,18.69,0,0,0,7.48.59L7.23,3.26,7,.73A11.76,11.76,0,0,0,2.1,3.42L4.23,6.26,1.54,4a6.25,6.25,0,0,0-.44.61A7,7,0,0,0,0,8L3.6,9.23,0,9a11.49,11.49,0,0,0,2.23,6.25,3.53,3.53,0,0,0,2,1A5.8,5.8,0,0,0,7.41,16L6.9,12l1.47,3.58a6.75,6.75,0,0,0,3.8-4.69L9.35,8.06l2.92,1.66C12.47,6.79,14.28,3.08,15.23.26Z"/></g></g></svg>