<svg xmlns="http://www.w3.org/2000/svg" viewBox="0 0 281.7 327.52"><defs><style>.cls-1{fill:#3e3a5b;}</style></defs><title>logo-alt_4</title><g id="Layer_2" data-name="Layer 2"><g id="alt-logo"><path class="cls-1" d="M31,223.94A12.73,12.73,0,0,1,26.77,225q-4.5,0-5-1.27-7.5-19.28-9.9-24.83-.22,2-1.2,9.38a177.47,177.47,0,0,0-2,23.92c0,1.55.09,3.63.29,6.23q-5.25,0-7.08-1.24A4,4,0,0,1,0,233.69q0-.75,2.51-20.4T5,185.92v-.38a28,28,0,0,0-4.57-5.77,11.31,11.31,0,0,1,6.68-2,8.43,8.43,0,0,1,7.64,4.61q2.72,4.62,10.58,25.31l3.45,8.85c.3-.5.75-1.17,1.35-2Q48.45,187.5,49,177.82a8.55,8.55,0,0,0,1.79.19,16.16,16.16,0,0,1,3.87.75,5.53,5.53,0,0,1,3,2,6.41,6.41,0,0,1,1.16,2.55,26.88,26.88,0,0,1,.22,4.2q0,3-2.47,19.91t-2.47,23.74c0,4.52.34,7.61,1.05,9.26q-6.39-1.65-8.71-4.39t-2.32-7.61q0-2.85,1.54-14t2.13-17.85q-3,5.17-8.51,14.18t-6.63,10.69C31.88,222.48,31.32,223.34,31,223.94Z"/><path class="cls-1" d="M78.22,223.87a11.11,11.11,0,0,0,1.32,5.74,4.1,4.1,0,0,0,3.71,2.21q3.52,0,6.71-4.13a31.84,31.84,0,0,0,5.1-10.57A43,43,0,0,0,97,204.86a79.05,79.05,0,0,0-.45-9.42q2.25-.15,3.15-.15a9.75,9.75,0,0,1,5.78,1.43q2,1.42,2,5.1,0,1.43-1.8,11.59a98.22,98.22,0,0,0-1.8,16.27,24.23,24.23,0,0,0,2.32,10.84q-5.62-1-8.25-4.16t-2.62-9.19q0-1,.3-4a22.64,22.64,0,0,1-7.2,11.47q-5.17,4.35-10.16,4.35a9.85,9.85,0,0,1-8-3.71q-3-3.71-3-10.54a37,37,0,0,1,2.44-13.23,28.06,28.06,0,0,1,7.31-10.88,15.76,15.76,0,0,1,10.88-4.46,16.85,16.85,0,0,1,7,1.65q-7.58,2.7-12.08,10.61A31.25,31.25,0,0,0,78.22,223.87Z"/><path class="cls-1" d="M128.17,213.67q2.7-9.75,6.49-14.36t7.05-4.62a5.55,5.55,0,0,1,4.91,2.44,11,11,0,0,1,1.65,6.3,12,12,0,0,1-2.28,7.09,7.29,7.29,0,0,1-6.27,3.22,6.53,6.53,0,0,1-2.47-.6,11,11,0,0,0,2.32-7q0-2.4-1.95-2.4c-1,0-2,.67-3.07,2a22.66,22.66,0,0,0-3.15,5.48,42.48,42.48,0,0,0-2.51,8.92,62.89,62.89,0,0,0-1,11.59q0,.75.38,6.37c-1.6.1-2.63.15-3.08.15q-4.28,0-6.15-1.5t-1.87-4.95q0-1.5,1.57-11.55a109.17,109.17,0,0,0,1.58-16,44.66,44.66,0,0,0-1.28-11q5.48,1.73,7.65,4.92a12.84,12.84,0,0,1,2.18,7.42A47.64,47.64,0,0,1,128.17,213.67Z"/><path class="cls-1" d="M164.06,212.58a110.33,110.33,0,0,0-1.87,17.63q0,6.93.86,9-5.85-1.5-7.88-4.54c-1.35-2-2-5-2-8.89a94.59,94.59,0,0,1,1.2-11.4,95.29,95.29,0,0,0,1.2-12.82,42,42,0,0,0-.45-7.05c1.1-.1,2.12-.15,3.07-.15,2.9,0,4.92.49,6,1.46s1.69,2.64,1.69,5Q165.9,201.9,164.06,212.58Zm3-24.86a26.34,26.34,0,0,1-3.67.3q-7.72,0-7.73-5.4a18.13,18.13,0,0,1,1.13-5.33,26.34,26.34,0,0,1,3.67-.3q7.72,0,7.73,5.4A18.13,18.13,0,0,1,167,187.72Z"/><path class="cls-1" d="M184.65,223.87a11.11,11.11,0,0,0,1.31,5.74,4.1,4.1,0,0,0,3.71,2.21q3.53,0,6.72-4.13a32.23,32.23,0,0,0,5.1-10.57,43.34,43.34,0,0,0,1.91-12.26,79.05,79.05,0,0,0-.45-9.42q2.25-.15,3.15-.15a9.72,9.72,0,0,1,5.77,1.43q1.95,1.42,1.95,5.1,0,1.43-1.8,11.59a98.22,98.22,0,0,0-1.8,16.27,24.24,24.24,0,0,0,2.33,10.84q-5.62-1-8.25-4.16t-2.63-9.19q0-1,.3-4a22.64,22.64,0,0,1-7.2,11.47q-5.18,4.35-10.16,4.35a9.83,9.83,0,0,1-8-3.71q-3-3.71-3-10.54A36.79,36.79,0,0,1,176,211.46a28,28,0,0,1,7.31-10.88,15.73,15.73,0,0,1,10.87-4.46,16.85,16.85,0,0,1,7.05,1.65q-7.58,2.7-12.07,10.61A31.25,31.25,0,0,0,184.65,223.87Z"/><path class="cls-1" d="M256,230.09a74.78,74.78,0,0,0,.45,7.95q-2.4.15-3.15.15c-2.8,0-4.82-.48-6.07-1.46a5.13,5.13,0,0,1-1.88-4.31,84.13,84.13,0,0,1,1.62-11.74,82.75,82.75,0,0,0,1.61-13.5q0-4.6-3-4.61c-1.1,0-2.3.66-3.6,2a21.4,21.4,0,0,0-3.68,5.4,36.82,36.82,0,0,0-2.88,8.73,47.75,47.75,0,0,0-1.17,10.24,85.71,85.71,0,0,0,.45,9.11q-2.4.15-3.15.15c-2.8,0-4.82-.48-6.07-1.46s-1.88-2.61-1.88-4.91q0-.82,1.54-11.18a118.89,118.89,0,0,0,1.54-16.38,45,45,0,0,0-1.28-11.07q5.55,1.73,7.73,4.95a13.89,13.89,0,0,1,2.17,8,44.46,44.46,0,0,1-.52,6.08,34.58,34.58,0,0,1,7.09-12.45q4.53-5,8.77-4.95a6.65,6.65,0,0,1,6.15,3.15c1.28,2.1,1.91,5.12,1.91,9.07a31.8,31.8,0,0,1,6.53-8.85q3.68-3.37,6.75-3.37,4.57,0,6.49,2.74a12.78,12.78,0,0,1,1.91,7.42,83.43,83.43,0,0,1-1.46,13.16,81.58,81.58,0,0,0-1.47,12.34,12.2,12.2,0,0,0,1,5.63,8,8,0,0,0,3.3,3c-.65,0-1.58.08-2.78.08-4.2,0-7.18-.65-9-1.95s-2.66-3.58-2.66-6.83a73.75,73.75,0,0,1,1.5-10.83,72.77,72.77,0,0,0,1.5-12q0-5-3-5-2.25,0-4.84,3.26a29.75,29.75,0,0,0-4.54,9.83A50.46,50.46,0,0,0,256,230.09Z"/><path class="cls-1" d="M25.2,262.53a6.94,6.94,0,0,1,.71,2.29c.08.7.12,2,.12,3.82s-.63,7.05-1.88,15.6l-.67,4.35a152.27,152.27,0,0,0,17.1-16.16q7-7.83,9.82-13.31a17.17,17.17,0,0,1,2.48,8.51q0,4.17-4.24,8.51a108.35,108.35,0,0,1-12.79,10.65q5.25,16.57,11.78,25.65a82.36,82.36,0,0,0,7,8.33,21.25,21.25,0,0,1-5.55.75,11.21,11.21,0,0,1-5.7-1.73,20.29,20.29,0,0,1-5.07-4.2A38.4,38.4,0,0,1,34,309a143,143,0,0,1-7-16q-2.1,1.58-4.57,3.22a153.59,153.59,0,0,0-1.35,16.92c0,3.82.34,6.56,1.05,8.21-4.25-1.1-7.16-2.56-8.7-4.39s-2.33-4.36-2.33-7.61q0-2.85,1.58-14.48,2.76-19.27,2.77-29.85,0-2.25-.3-6.15c3.8.2,6.57.8,8.33,1.8A4,4,0,0,1,25.2,262.53Z"/><path class="cls-1" d="M71.4,295.87a35.94,35.94,0,0,1,7.73-14.29c3.49-3.87,6.76-5.81,9.78-5.81s5.18.91,6.45,2.74a12.71,12.71,0,0,1,1.91,7.42,82.24,82.24,0,0,1-1.46,13.16,82.57,82.57,0,0,0-1.46,12.34,12.22,12.22,0,0,0,1,5.63,8,8,0,0,0,3.31,3c-.66.05-1.58.08-2.78.08q-6.3,0-9-1.95t-2.67-6.83a73.75,73.75,0,0,1,1.5-10.83,72.77,72.77,0,0,0,1.5-12q0-4.95-3-4.95a6.16,6.16,0,0,0-4,2,23,23,0,0,0-4.16,5.52,35,35,0,0,0-3.34,9A45.45,45.45,0,0,0,71.4,311a52.2,52.2,0,0,0,.45,8.06q-2.4.15-3.15.15c-2.85,0-4.9-.48-6.15-1.46A5.58,5.58,0,0,1,60.67,313,108.81,108.81,0,0,1,62,300.74q4-27.9,4-42.37,0-6.52-.9-8.78,5.63,1.5,7.69,4.54t2.06,8.59q0,3.75-1.46,15.75T71.4,295.87Z"/><path class="cls-1" d="M116.32,304.87a11.11,11.11,0,0,0,1.32,5.74,4.1,4.1,0,0,0,3.71,2.21q3.53,0,6.71-4.13a31.84,31.84,0,0,0,5.1-10.57,43,43,0,0,0,1.91-12.26,79.05,79.05,0,0,0-.45-9.42q2.25-.15,3.15-.15a9.75,9.75,0,0,1,5.78,1.43q1.95,1.42,1.95,5.1,0,1.43-1.8,11.59a98.22,98.22,0,0,0-1.8,16.27,24.23,24.23,0,0,0,2.32,10.84q-5.62-1-8.25-4.16t-2.62-9.19q0-1.05.3-4.05a22.64,22.64,0,0,1-7.2,11.47q-5.17,4.35-10.16,4.35a9.85,9.85,0,0,1-8-3.71q-3-3.71-3-10.54a37,37,0,0,1,2.44-13.23A28.06,28.06,0,0,1,115,281.58a15.76,15.76,0,0,1,10.88-4.46,16.85,16.85,0,0,1,7.05,1.65q-7.58,2.7-12.08,10.61A31.25,31.25,0,0,0,116.32,304.87Z"/><path class="cls-1" d="M155.25,314.28A29.43,29.43,0,0,1,155,310q0-2.93,2.52-23t2.51-27.6q0-7.5-.9-9.75,5.63,1.5,7.69,4.54t2.06,8.59q0,3.3-2.18,21.45a257.38,257.38,0,0,0-2.17,29.25q0,2.4.3,6.75-6.82-.3-8.48-3A8.17,8.17,0,0,1,155.25,314.28Z"/><path class="cls-1" d="M189.86,293.58A111.51,111.51,0,0,0,188,311.21q0,6.93.86,9-5.85-1.5-7.88-4.54c-1.35-2-2-5-2-8.89a94.59,94.59,0,0,1,1.2-11.4,95.29,95.29,0,0,0,1.2-12.82,42,42,0,0,0-.45-7c1.1-.1,2.12-.15,3.07-.15,2.9,0,4.92.49,6,1.46s1.69,2.64,1.69,5Q191.7,282.9,189.86,293.58Zm3-24.86a26.34,26.34,0,0,1-3.67.3q-7.72,0-7.73-5.4a18.13,18.13,0,0,1,1.13-5.33,26.34,26.34,0,0,1,3.67-.3q7.72,0,7.73,5.4A18.13,18.13,0,0,1,192.82,268.72Z"/><path class="cls-1" d="M227.17,275.24q.15,1.5.15,2.25c0,2.4-.42,4.07-1.27,5s-2.34,1.39-4.46,1.39-3.77,0-4.92-.08q-2.92,21.3-2.92,30.53,0,4.43.19,6.41t1,6.79a14.3,14.3,0,0,1-7.95-5.59,16.14,16.14,0,0,1-2.55-9.11q0-7.87,2.25-23.25c.35-2.6.57-4.33.67-5.18a32.9,32.9,0,0,0-8.1,2.55c-.1-1.1-.15-1.92-.15-2.47q0-4.05,2.48-5.48a15,15,0,0,1,7.12-1.5,55.74,55.74,0,0,1,4-12.67,25.05,25.05,0,0,1,5.51-8q5.7-5.25,11.92-5.25a10.4,10.4,0,0,1,7.09,2.52,7.82,7.82,0,0,1,2.89,6.15,9.07,9.07,0,0,1-2.48,6.33,8.42,8.42,0,0,1-6.52,2.7,9.27,9.27,0,0,1-3.08-.52,11.1,11.1,0,0,0,3.53-7.39,5,5,0,0,0-.86-3.11,2.76,2.76,0,0,0-2.29-1.13c-2,0-4.14,1.72-6.26,5.14s-3.72,8.59-4.77,15.49Q224.1,277.72,227.17,275.24Z"/><path class="cls-1" d="M241.05,304.87a11.21,11.21,0,0,0,1.31,5.74,4.11,4.11,0,0,0,3.71,2.21q3.52,0,6.72-4.13a32.23,32.23,0,0,0,5.1-10.57,43.34,43.34,0,0,0,1.91-12.26,79.05,79.05,0,0,0-.45-9.42q2.25-.15,3.15-.15a9.72,9.72,0,0,1,5.77,1.43q2,1.42,2,5.1,0,1.43-1.8,11.59a98.22,98.22,0,0,0-1.8,16.27A24.24,24.24,0,0,0,269,321.52q-5.62-1-8.25-4.16t-2.63-9.19q0-1.05.3-4.05a22.64,22.64,0,0,1-7.2,11.47Q246,319.94,241,319.94a9.83,9.83,0,0,1-8-3.71q-3-3.71-3-10.54a36.79,36.79,0,0,1,2.44-13.23,28,28,0,0,1,7.31-10.88,15.73,15.73,0,0,1,10.87-4.46,16.85,16.85,0,0,1,7.05,1.65q-7.58,2.7-12.07,10.61A31.25,31.25,0,0,0,241.05,304.87Z"/><g id="butterfy"><g id="wings"><path class="cls-1" d="M107.51,41.77c-2.25-.59-4.43-1.24-6.57-1.76-1.07-.26-2.13-.5-3.15-.65A10.4,10.4,0,0,0,95,39.21a1.6,1.6,0,0,0-.79.25c-.13.1,0,.14.13.1s.13,0,.14.17a6.57,6.57,0,0,0,.11.87,15.66,15.66,0,0,0,.71,2.53c.32.92.7,1.86,1.11,2.81,1.66,3.8,3.7,7.67,5.48,11.68s3.47,8.19,5.3,12.29c.88,2.07,1.88,4.08,2.79,6.14s1.41,4.38,2.6,6.28a13.51,13.51,0,0,0,1.05,1.16,1.91,1.91,0,0,0,.46.34c.06,0,.09,0,.06,0a.34.34,0,0,0-.25,0c-.16,0-.08,0,0-.17A5,5,0,0,0,114,83a13.46,13.46,0,0,0,.17-1.5,57.65,57.65,0,0,0-.07-6.56c-.49-8.91-1.5-17.94-1.58-27.16a109,109,0,0,1,.68-14,55.65,55.65,0,0,1,3.6-14.59,29.76,29.76,0,0,1,4.49-7.53,21.29,21.29,0,0,1,3.74-3.49,17.25,17.25,0,0,1,2.35-1.42l1.67-.82A73.3,73.3,0,0,1,136,3.06a66,66,0,0,1,7.33-2,49.23,49.23,0,0,1,7.72-1A40.64,40.64,0,0,1,159,.39a42.67,42.67,0,0,1,7.85,1.86,40.38,40.38,0,0,1,13.72,8.1A44.53,44.53,0,0,1,185.83,16a60.56,60.56,0,0,1,7.73,12.65c1,2.24,1.89,4.33,2.73,6.46s1.63,4.28,2.4,6.45Q201,48,202.75,54.73a99.65,99.65,0,0,1,2.63,13.77,41.21,41.21,0,0,1-.56,14.62,17,17,0,0,1-1.47,3.78,8,8,0,0,1-.55.92,9.1,9.1,0,0,1-.63.9,11.38,11.38,0,0,1-1.5,1.58,28.3,28.3,0,0,1-3,2.23c-1,.66-2,1.26-3,1.85-3.94,2.33-8,4.32-11.55,6.71a29.54,29.54,0,0,0-2.51,1.83,6.26,6.26,0,0,0-1.57,1.73c-.07.21,0,0-.08-.05s.17.23.5.45a10.56,10.56,0,0,0,2.59,1.15c4,1.23,8.59,1.36,13.21,2a31.17,31.17,0,0,1,7.2,1.72,16.49,16.49,0,0,1,3.87,2.1,10.78,10.78,0,0,1,2,1.88,10.22,10.22,0,0,1,.9,1.3q.21.36.39.75a7.67,7.67,0,0,1,.31.76,19,19,0,0,1,.63,8.8A30.18,30.18,0,0,1,208.4,133a34.53,34.53,0,0,1-3.7,6.61,29.78,29.78,0,0,1-5.16,5.68c-1,.86-2,1.57-3,2.26s-2,1.36-3.13,2a31.86,31.86,0,0,1-7,2.87,24.2,24.2,0,0,1-15-.7,35.88,35.88,0,0,1-11.92-7.88,68.54,68.54,0,0,1-8.73-10.62,109.45,109.45,0,0,1-6.84-11.67c2.75,3.55,5.55,7,8.55,10.33a71.12,71.12,0,0,0,9.58,9,31.65,31.65,0,0,0,11,5.75,18.91,18.91,0,0,0,11.42-.48,24.47,24.47,0,0,0,5.24-2.68c.84-.55,1.66-1.14,2.45-1.77a21.94,21.94,0,0,0,2.22-2,27.51,27.51,0,0,0,5.92-9.86,23.47,23.47,0,0,0,1.24-5.45,9.81,9.81,0,0,0-.45-4.47c0-.1,0,0,0,0h0s0,0-.06-.07-.23-.25-.44-.44a13.14,13.14,0,0,0-1.92-1.3c-1.58-.91-3.49-1.82-5.46-2.73s-4.05-1.78-6.16-2.63-4.27-1.65-6.48-2.6a19,19,0,0,1-3.44-1.79,8,8,0,0,1-.89-.73,4.44,4.44,0,0,1-.92-1.2,3.86,3.86,0,0,1-.43-1.74,4.29,4.29,0,0,1,.3-1.56,7.44,7.44,0,0,1,1.25-2,15.28,15.28,0,0,1,1.38-1.4,34.85,34.85,0,0,1,2.84-2.22c3.83-2.65,7.69-4.93,11.33-7.38a31.14,31.14,0,0,0,4.87-3.83,4.81,4.81,0,0,0,.4-.47,3.25,3.25,0,0,0,.32-.45,2.72,2.72,0,0,0,.29-.5,3.47,3.47,0,0,0,.26-.55,11.49,11.49,0,0,0,.73-2.55c.61-3.73,0-8-.83-12.09a94,94,0,0,0-3.74-12.31c-1.53-4.06-3.25-8.06-5.07-12q-1.37-3-2.83-5.92L185,36.46c-.49-1-1-1.85-1.46-2.78-3.95-7.22-9.3-13.35-15.76-16.55s-13.89-3.43-21.34-1.72a63,63,0,0,0-11.14,3.81l-1.36.63c-.17.08-.34.18-.53.29a5.73,5.73,0,0,0-1.24,1A15.77,15.77,0,0,0,129.58,25a57.51,57.51,0,0,0-3.94,11.13c-1.08,4.05-2,8.29-2.84,12.6s-1.6,8.69-2.34,13.11l-2.13,13.38c-.4,2.25-.75,4.5-1.36,6.8a15.19,15.19,0,0,1-.58,1.77,6.06,6.06,0,0,1-.48,1,2.48,2.48,0,0,1-1.15,1,1.79,1.79,0,0,1-1.07,0,2.32,2.32,0,0,1-.69-.37,3.88,3.88,0,0,1-.74-.82,9.22,9.22,0,0,1-.81-1.64c-1-2-2.79-3.54-4.19-5.31s-2.67-3.62-4.05-5.42c-2.72-3.61-5.52-7.2-7.95-11.08a57.27,57.27,0,0,1-5.92-12.62A25.21,25.21,0,0,1,88,40.9a10.53,10.53,0,0,1,.33-2.48,6.38,6.38,0,0,1,1.56-2.83,5.54,5.54,0,0,1,3-1.57,7.15,7.15,0,0,1,2.54,0,13.4,13.4,0,0,1,3.76,1.31,25.21,25.21,0,0,1,3.08,1.87A36,36,0,0,1,107.51,41.77Z"/></g><g id="antenna"><path class="cls-1" d="M67,87.06a10.28,10.28,0,0,1-2.07-1.57,4.67,4.67,0,0,1-1.46-2.59,3,3,0,0,1,.33-1.9,3.88,3.88,0,0,1,1.3-1.31,7.5,7.5,0,0,1,2.88-1,16.51,16.51,0,0,1,5.41.22,18.92,18.92,0,0,1,5,1.62,40.72,40.72,0,0,1,8.31,6,10.31,10.31,0,0,0,1.94,1.33A2.19,2.19,0,0,0,89,88c.16.07.18,0,0,.1s0,.08-.09-.06a2.83,2.83,0,0,0-.16-.46,10.61,10.61,0,0,0-1.15-2c-.45-.67-1-1.3-1.47-1.94-1-1.26-2.12-2.47-3.18-3.7l-3.2-3.69c-2.14-2.43-4.38-4.77-6.59-7a31.73,31.73,0,0,0-3.31-3.06l-.38-.27a3.07,3.07,0,0,0-.38-.21c-.32-.13-.64-.3-1-.42a8.82,8.82,0,0,0-2-.54,6.86,6.86,0,0,0-2,0,3.75,3.75,0,0,0-1.62.72,1.88,1.88,0,0,0-.67,1.55A4.45,4.45,0,0,0,62.72,69l-.28.3a4.74,4.74,0,0,1-1.81-2A3.45,3.45,0,0,1,61,64.14a5.35,5.35,0,0,1,2.42-2,8.08,8.08,0,0,1,2.91-.62,11.54,11.54,0,0,1,2.88.27c.46.11.9.26,1.36.39a6.88,6.88,0,0,1,.75.3c.24.11.47.23.68.35a23.26,23.26,0,0,1,4.24,3.29,59,59,0,0,1,6.54,7.73c1,1.35,2,2.72,2.83,4.15s1.68,2.92,2.44,4.42a36.61,36.61,0,0,1,2.07,4.71,5,5,0,0,1,.15.73,1.84,1.84,0,0,1,0,.47,1.18,1.18,0,0,1-.08.31,1.2,1.2,0,0,1-.23.34,1,1,0,0,1-.7.28,1.57,1.57,0,0,1-.48-.07,3.67,3.67,0,0,1-.69-.28,21.42,21.42,0,0,1-2.18-1.4,29.23,29.23,0,0,0-8.75-3.88c-1.5-.45-3-.88-4.48-1.24a19.53,19.53,0,0,0-4.41-.59,6.48,6.48,0,0,0-1.87.24c-.5.21-.68.29-.79.73A3.45,3.45,0,0,0,66,84.67a19,19,0,0,0,1.22,2.1Z"/></g><path id="body" class="cls-1" d="M101.64,99.75c3.1,2.09,5.5-3.82,7.29-2.45s7.41,12.52,14.14,16.75,5.51,6,6.61,9.1,3.22,9.54,5.51,12.36c6.75,8.31,14.55,15.87,4.49-4.82-4.42-9.09-5.06-17.82-11.84-24.8S112.68,91.51,102.4,90.65c-4.06-.34-6.5-.54-4.61,3A53.78,53.78,0,0,0,101.64,99.75Z"/></g></g></g></svg>