<svg xmlns="http://www.w3.org/2000/svg" viewBox="0 0 150.41 153.29"><defs><style>.cls-1{fill:#56545c;}</style></defs><g id="Layer_2" data-name="Layer 2"><g id="purple-logo"><g id="butterfy"><path id="wings" class="cls-1" d="M47.11,41.77c-2.25-.59-4.43-1.24-6.57-1.76-1.07-.26-2.12-.5-3.14-.65a10.49,10.49,0,0,0-2.78-.15,1.64,1.64,0,0,0-.79.25c-.12.1,0,.14.13.1s.13,0,.14.17,0,.51.12.87a15.66,15.66,0,0,0,.71,2.53c.31.92.69,1.86,1.11,2.81,1.65,3.8,3.69,7.67,5.47,11.68s3.47,8.19,5.3,12.29c.88,2.07,1.88,4.08,2.8,6.14s1.4,4.38,2.6,6.28a12,12,0,0,0,1,1.16,2.4,2.4,0,0,0,.46.34c.07,0,.09,0,.06,0a.34.34,0,0,0-.25,0c-.16,0-.08,0,0-.17a5,5,0,0,0,.15-.61,11.45,11.45,0,0,0,.17-1.5A55.43,55.43,0,0,0,53.74,75c-.48-8.91-1.5-17.94-1.58-27.16a111.1,111.1,0,0,1,.68-14,55.68,55.68,0,0,1,3.6-14.58,29.52,29.52,0,0,1,4.5-7.53,21.22,21.22,0,0,1,3.73-3.49A16.78,16.78,0,0,1,67,6.76l1.66-.82a72.38,72.38,0,0,1,6.89-2.88,65.41,65.41,0,0,1,7.33-2,49,49,0,0,1,7.71-1,40.74,40.74,0,0,1,7.94.33,42.57,42.57,0,0,1,7.84,1.86,40.38,40.38,0,0,1,13.72,8.1A44.62,44.62,0,0,1,125.44,16a60.51,60.51,0,0,1,7.72,12.65c1,2.24,1.89,4.33,2.73,6.46s1.63,4.28,2.4,6.45q2.33,6.48,4.06,13.21A99.65,99.65,0,0,1,145,68.5a41.21,41.21,0,0,1-.56,14.62A17,17,0,0,1,143,86.9a9.6,9.6,0,0,1-.54.92,7.78,7.78,0,0,1-.64.9,11.38,11.38,0,0,1-1.5,1.58,26.39,26.39,0,0,1-3,2.23c-1,.66-2,1.26-3,1.85-3.94,2.33-8,4.32-11.55,6.71a29.54,29.54,0,0,0-2.51,1.83,6.43,6.43,0,0,0-1.57,1.73c-.07.21,0,0-.08-.05s.18.23.51.45a10.31,10.31,0,0,0,2.58,1.15c4,1.23,8.59,1.36,13.21,2a31.17,31.17,0,0,1,7.2,1.72A16.49,16.49,0,0,1,146,112a10.78,10.78,0,0,1,2,1.88,9.29,9.29,0,0,1,.9,1.3q.21.36.39.75a7.67,7.67,0,0,1,.31.76,18.87,18.87,0,0,1,.63,8.8A30.6,30.6,0,0,1,148,133a34.57,34.57,0,0,1-3.71,6.61,29.45,29.45,0,0,1-5.16,5.68c-1,.86-2,1.57-3,2.26s-2,1.36-3.13,2a31.86,31.86,0,0,1-7,2.87,24.16,24.16,0,0,1-15-.7,35.83,35.83,0,0,1-11.93-7.88,68.54,68.54,0,0,1-8.73-10.62,107.7,107.7,0,0,1-6.83-11.67c2.75,3.55,5.55,7,8.54,10.33a71.12,71.12,0,0,0,9.58,9,31.61,31.61,0,0,0,11,5.75,18.91,18.91,0,0,0,11.42-.48,25,25,0,0,0,5.24-2.68c.83-.55,1.65-1.14,2.45-1.77a21.78,21.78,0,0,0,2.21-2,27.53,27.53,0,0,0,5.93-9.86,23.44,23.44,0,0,0,1.23-5.45,9.81,9.81,0,0,0-.45-4.47c0-.1,0,0,0,0s0,0,0,0,0,0-.06-.07a5.81,5.81,0,0,0-.44-.44,12.61,12.61,0,0,0-1.92-1.3c-1.58-.91-3.49-1.82-5.45-2.73s-4.06-1.78-6.17-2.63-4.27-1.65-6.48-2.6a18.56,18.56,0,0,1-3.43-1.79,7.21,7.21,0,0,1-.9-.73,4.65,4.65,0,0,1-.92-1.2,3.86,3.86,0,0,1-.43-1.74,4.51,4.51,0,0,1,.3-1.56,7.44,7.44,0,0,1,1.25-2,15.34,15.34,0,0,1,1.39-1.4,33.1,33.1,0,0,1,2.83-2.22c3.83-2.65,7.7-4.93,11.33-7.38a31.14,31.14,0,0,0,4.87-3.83,4.81,4.81,0,0,0,.4-.47,2.14,2.14,0,0,0,.32-.45,2.72,2.72,0,0,0,.29-.5,3.47,3.47,0,0,0,.26-.55,11,11,0,0,0,.73-2.55c.61-3.73,0-8-.83-12.09a92.48,92.48,0,0,0-3.74-12.31c-1.53-4.06-3.25-8.06-5.07-12-.9-2-1.85-4-2.83-5.92l-1.45-2.95c-.49-1-1-1.85-1.46-2.78-4-7.22-9.29-13.35-15.76-16.55S93.47,13.7,86,15.41a62.42,62.42,0,0,0-11.14,3.81l-1.37.63c-.17.08-.34.18-.53.29a5.48,5.48,0,0,0-1.23,1A15.22,15.22,0,0,0,69.19,25a56.85,56.85,0,0,0-4,11.13c-1.08,4.05-2,8.29-2.83,12.6s-1.61,8.69-2.34,13.11L57.94,75.21c-.4,2.25-.76,4.5-1.37,6.8A15.19,15.19,0,0,1,56,83.78a6,6,0,0,1-.47,1,2.57,2.57,0,0,1-1.16,1,1.79,1.79,0,0,1-1.07,0,2.32,2.32,0,0,1-.69-.37,3.88,3.88,0,0,1-.74-.82A9.22,9.22,0,0,1,51.05,83c-1-2-2.78-3.54-4.19-5.31s-2.67-3.62-4-5.42c-2.72-3.61-5.52-7.2-8-11.08a57.27,57.27,0,0,1-5.92-12.62,25.21,25.21,0,0,1-1.37-7.66,10.08,10.08,0,0,1,.34-2.48,6.26,6.26,0,0,1,1.55-2.83,5.57,5.57,0,0,1,3-1.57A7.15,7.15,0,0,1,35,34a13.59,13.59,0,0,1,3.77,1.31,26.83,26.83,0,0,1,3.08,1.87A36.49,36.49,0,0,1,47.11,41.77Z"/><path id="antenna" class="cls-1" d="M6.58,87.06A10.34,10.34,0,0,1,4.5,85.49,4.73,4.73,0,0,1,3,82.9,3,3,0,0,1,3.37,81a3.81,3.81,0,0,1,1.31-1.31,7.51,7.51,0,0,1,2.87-1,16.51,16.51,0,0,1,5.41.22,19.11,19.11,0,0,1,5,1.62,41.28,41.28,0,0,1,8.31,6,9.94,9.94,0,0,0,1.93,1.33,2.42,2.42,0,0,0,.46.17c.16.07.19,0,0,.1s0,.08-.09-.06a4,4,0,0,0-.15-.46,10.67,10.67,0,0,0-1.16-2c-.45-.67-1-1.3-1.46-1.94-1-1.26-2.13-2.47-3.19-3.7l-3.19-3.69c-2.15-2.43-4.39-4.77-6.59-7a33.87,33.87,0,0,0-3.31-3.06l-.39-.27a3.07,3.07,0,0,0-.38-.21c-.32-.13-.64-.3-1-.42a9.05,9.05,0,0,0-2-.54,6.86,6.86,0,0,0-2,0,3.75,3.75,0,0,0-1.62.72,1.88,1.88,0,0,0-.67,1.55A4.56,4.56,0,0,0,2.32,69l-.27.3a4.76,4.76,0,0,1-1.82-2,3.45,3.45,0,0,1,.32-3.11,5.35,5.35,0,0,1,2.42-2,8.08,8.08,0,0,1,2.91-.62,11.49,11.49,0,0,1,2.88.27c.46.11.91.26,1.36.39a6.16,6.16,0,0,1,.75.3c.24.11.47.23.68.35a22.92,22.92,0,0,1,4.24,3.29,57.45,57.45,0,0,1,6.54,7.73c1,1.35,2,2.72,2.84,4.15s1.67,2.92,2.44,4.42a35.25,35.25,0,0,1,2.06,4.71,3.25,3.25,0,0,1,.15.73,2.38,2.38,0,0,1,0,.47c0,.1,0,.21-.08.31a1.85,1.85,0,0,1-.23.34,1,1,0,0,1-.71.28,1.62,1.62,0,0,1-.48-.07,3.67,3.67,0,0,1-.69-.28,21.42,21.42,0,0,1-2.18-1.4,29.23,29.23,0,0,0-8.75-3.88c-1.5-.45-3-.88-4.48-1.24a19.52,19.52,0,0,0-4.4-.59A6.39,6.39,0,0,0,6,82.05c-.5.21-.69.29-.8.73a3.54,3.54,0,0,0,.47,1.89,19,19,0,0,0,1.22,2.1Z"/><path id="body" class="cls-1" d="M41.24,99.75c3.1,2.09,5.5-3.82,7.29-2.45s7.41,12.52,14.15,16.75,5.5,6,6.6,9.1,3.22,9.54,5.51,12.36c6.75,8.31,14.55,15.87,4.49-4.82-4.42-9.09-5.06-17.82-11.84-24.8S52.29,91.51,42,90.65c-4.06-.34-6.5-.54-4.61,3A53.78,53.78,0,0,0,41.24,99.75Z"/></g></g></g></svg>