<svg xmlns="http://www.w3.org/2000/svg" viewBox="0 0 461.61 153.29"><defs><style>.cls-1{fill:#3e3a5b;}</style></defs><title>logo_3</title><g id="Layer_2" data-name="Layer 2"><g id="purple-logo"><path class="cls-1" d="M218,49a12.63,12.63,0,0,1-4.2,1.05q-4.5,0-5-1.27-7.5-19.28-9.9-24.83-.23,2-1.2,9.38a177.47,177.47,0,0,0-2,23.92q0,2.33.3,6.23c-3.5,0-5.87-.42-7.09-1.24A4,4,0,0,1,187,58.73q0-.75,2.51-20.4T192.06,11v-.38a28,28,0,0,0-4.58-5.77,11.33,11.33,0,0,1,6.68-1.95,8.43,8.43,0,0,1,7.65,4.61q2.7,4.6,10.57,25.31l3.45,8.85c.3-.5.75-1.17,1.35-2Q235.48,12.53,236,2.86a8.3,8.3,0,0,0,1.8.18,17.23,17.23,0,0,1,3.86.75,5.59,5.59,0,0,1,3,2,6.44,6.44,0,0,1,1.16,2.54,26.78,26.78,0,0,1,.23,4.21q0,3-2.48,19.91t-2.47,23.73c0,4.53.34,7.62,1,9.27q-6.37-1.65-8.7-4.39t-2.33-7.61q0-2.85,1.54-14t2.14-17.85q-3,5.17-8.52,14.18t-6.63,10.68C218.91,47.52,218.36,48.38,218,49Z"/><path class="cls-1" d="M263.83,48.91a11.15,11.15,0,0,0,1.31,5.73,4.11,4.11,0,0,0,3.72,2.22q3.51,0,6.71-4.13a32.23,32.23,0,0,0,5.1-10.57,43.35,43.35,0,0,0,1.91-12.27,79,79,0,0,0-.45-9.41q2.25-.15,3.15-.15a9.78,9.78,0,0,1,5.78,1.43q1.95,1.43,1.95,5.1,0,1.42-1.8,11.58a98.43,98.43,0,0,0-1.8,16.28,24.23,24.23,0,0,0,2.32,10.84q-5.62-1-8.25-4.17t-2.62-9.18c0-.7.09-2.05.3-4.05A22.64,22.64,0,0,1,274,59.63Q268.78,64,263.79,64a9.83,9.83,0,0,1-8-3.71q-3-3.72-3-10.54a36.79,36.79,0,0,1,2.44-13.23,28,28,0,0,1,7.31-10.88,15.76,15.76,0,0,1,10.88-4.46,16.85,16.85,0,0,1,7.05,1.65q-7.57,2.7-12.08,10.61A31.25,31.25,0,0,0,263.83,48.91Z"/><path class="cls-1" d="M312.36,38.71q2.7-9.75,6.48-14.36t7.05-4.62a5.56,5.56,0,0,1,4.92,2.44,11,11,0,0,1,1.65,6.3,12,12,0,0,1-2.29,7.09,7.27,7.27,0,0,1-6.26,3.22,6.53,6.53,0,0,1-2.48-.6,11,11,0,0,0,2.33-7q0-2.4-1.95-2.4c-.95,0-2,.67-3.08,2a22.77,22.77,0,0,0-3.15,5.47,42.77,42.77,0,0,0-2.51,8.93,62.91,62.91,0,0,0-1,11.59q0,.75.37,6.37c-1.6.1-2.62.15-3.07.15-2.85,0-4.91-.5-6.15-1.5s-1.88-2.65-1.88-4.95q0-1.5,1.58-11.55a109,109,0,0,0,1.57-16,44.68,44.68,0,0,0-1.27-11q5.48,1.72,7.65,4.91A12.89,12.89,0,0,1,313,30.57,47.65,47.65,0,0,1,312.36,38.71Z"/><path class="cls-1" d="M346.82,37.62a111.69,111.69,0,0,0-1.88,17.63c0,4.62.26,7.61.86,9q-5.83-1.5-7.87-4.54t-2-8.89a93.93,93.93,0,0,1,1.19-11.4,95.29,95.29,0,0,0,1.2-12.82,40.92,40.92,0,0,0-.45-7c1.1-.1,2.13-.15,3.08-.15q4.35,0,6,1.46c1.12,1,1.69,2.64,1.69,5Q348.66,26.94,346.82,37.62Zm3-24.86a26.36,26.36,0,0,1-3.68.3q-7.73,0-7.72-5.4a18.05,18.05,0,0,1,1.12-5.33,26.48,26.48,0,0,1,3.68-.3q7.72,0,7.73,5.4A18.13,18.13,0,0,1,349.78,12.76Z"/><path class="cls-1" d="M366,48.91a11.15,11.15,0,0,0,1.31,5.73A4.11,4.11,0,0,0,371,56.86q3.53,0,6.72-4.13a32.23,32.23,0,0,0,5.1-10.57,43.35,43.35,0,0,0,1.91-12.27,79,79,0,0,0-.45-9.41q2.25-.15,3.15-.15a9.72,9.72,0,0,1,5.77,1.43c1.3.95,2,2.65,2,5.1q0,1.42-1.8,11.58a98.43,98.43,0,0,0-1.8,16.28,24.23,24.23,0,0,0,2.32,10.84q-5.62-1-8.25-4.17T383,52.21c0-.7.1-2.05.31-4.05a22.7,22.7,0,0,1-7.2,11.47Q370.94,64,365.94,64a9.83,9.83,0,0,1-8-3.71q-3-3.72-3-10.54a36.79,36.79,0,0,1,2.44-13.23,28,28,0,0,1,7.31-10.88,15.73,15.73,0,0,1,10.87-4.46,16.89,16.89,0,0,1,7.06,1.65q-7.59,2.7-12.08,10.61A31.25,31.25,0,0,0,366,48.91Z"/><path class="cls-1" d="M435.88,55.13a74.78,74.78,0,0,0,.45,7.95q-2.4.15-3.15.15c-2.8,0-4.83-.48-6.07-1.46a5.14,5.14,0,0,1-1.88-4.31,85,85,0,0,1,1.61-11.74,81.87,81.87,0,0,0,1.61-13.5c0-3.08-1-4.61-3-4.61-1.09,0-2.29.66-3.59,2a21.15,21.15,0,0,0-3.68,5.4,37.25,37.25,0,0,0-2.89,8.73A48.36,48.36,0,0,0,414.13,54a85.71,85.71,0,0,0,.45,9.11q-2.4.15-3.15.15c-2.8,0-4.83-.48-6.07-1.46s-1.88-2.61-1.88-4.91q0-.82,1.54-11.18a118.88,118.88,0,0,0,1.54-16.39,45,45,0,0,0-1.28-11.06Q410.83,20,413,23.18a14,14,0,0,1,2.17,8,46.12,46.12,0,0,1-.52,6.08,34.56,34.56,0,0,1,7.08-12.45q4.54-4.95,8.78-5A6.66,6.66,0,0,1,436.67,23q1.9,3.15,1.91,9.07a31.8,31.8,0,0,1,6.53-8.85q3.66-3.37,6.75-3.37c3,0,5.21.91,6.48,2.73A12.76,12.76,0,0,1,460.26,30a82.49,82.49,0,0,1-1.47,13.16,82.57,82.57,0,0,0-1.46,12.34,12.2,12.2,0,0,0,1,5.63,7.91,7.91,0,0,0,3.3,3c-.66.05-1.58.08-2.78.08q-6.3,0-9-1.95t-2.67-6.83a73.75,73.75,0,0,1,1.5-10.83,72.77,72.77,0,0,0,1.5-12q0-5-3-5c-1.5,0-3.11,1.08-4.83,3.26s-3.24,5.45-4.54,9.82A50.58,50.58,0,0,0,435.88,55.13Z"/><path class="cls-1" d="M201.51,87.57a7.11,7.11,0,0,1,.71,2.29c.07.7.11,2,.11,3.82s-.63,7-1.87,15.6l-.68,4.35a152.27,152.27,0,0,0,17.1-16.16q7-7.83,9.83-13.31a17.13,17.13,0,0,1,2.47,8.51q0,4.15-4.24,8.51a107.27,107.27,0,0,1-12.78,10.65q5.25,16.58,11.77,25.65a83.7,83.7,0,0,0,7,8.33,21.19,21.19,0,0,1-5.55.75,11.21,11.21,0,0,1-5.7-1.73,20.06,20.06,0,0,1-5.06-4.2,37.81,37.81,0,0,1-4.39-6.6,143.23,143.23,0,0,1-7-16q-2.1,1.57-4.58,3.22a153.62,153.62,0,0,0-1.35,16.91q0,5.75,1.05,8.22-6.37-1.65-8.7-4.39t-2.32-7.61q0-2.85,1.57-14.48,2.78-19.28,2.78-29.85,0-2.25-.3-6.15,5.7.3,8.32,1.8A4,4,0,0,1,201.51,87.57Z"/><path class="cls-1" d="M248.53,120.91a35.94,35.94,0,0,1,7.73-14.29c3.49-3.87,6.76-5.81,9.78-5.81s5.18.91,6.45,2.73a12.76,12.76,0,0,1,1.92,7.43,82.49,82.49,0,0,1-1.47,13.16,82.57,82.57,0,0,0-1.46,12.34,12.2,12.2,0,0,0,1,5.63,7.91,7.91,0,0,0,3.3,3c-.65.05-1.58.08-2.78.08q-6.3,0-9-2c-1.78-1.3-2.66-3.58-2.66-6.83a72.34,72.34,0,0,1,1.5-10.83,72.77,72.77,0,0,0,1.5-12c0-3.3-1-5-3-5a6.18,6.18,0,0,0-4,2,23.09,23.09,0,0,0-4.16,5.51,35.27,35.27,0,0,0-3.34,9A45.45,45.45,0,0,0,248.53,136a52.2,52.2,0,0,0,.45,8.06q-2.4.15-3.15.15-4.28,0-6.15-1.46c-1.25-1-1.87-2.54-1.87-4.69a108,108,0,0,1,1.27-12.3q4-27.9,4-42.37,0-6.52-.9-8.78,5.63,1.5,7.69,4.54c1.37,2,2.06,4.89,2.06,8.59q0,3.75-1.46,15.75T248.53,120.91Z"/><path class="cls-1" d="M294.28,129.91a11.15,11.15,0,0,0,1.31,5.73,4.11,4.11,0,0,0,3.71,2.22q3.52,0,6.72-4.13a32.23,32.23,0,0,0,5.1-10.57A43.35,43.35,0,0,0,313,110.89a79,79,0,0,0-.45-9.41q2.25-.15,3.15-.15a9.72,9.72,0,0,1,5.77,1.43q2,1.42,1.95,5.1,0,1.42-1.79,11.58a97.35,97.35,0,0,0-1.8,16.28,24.23,24.23,0,0,0,2.32,10.84q-5.62-1-8.25-4.17t-2.63-9.18c0-.7.1-2.05.31-4.05a22.7,22.7,0,0,1-7.2,11.47c-3.46,2.9-6.84,4.35-10.17,4.35a9.86,9.86,0,0,1-8-3.71q-3-3.71-3-10.54a36.79,36.79,0,0,1,2.44-13.23,28,28,0,0,1,7.31-10.88,15.73,15.73,0,0,1,10.87-4.46,16.92,16.92,0,0,1,7.06,1.65q-7.59,2.7-12.08,10.61A31.25,31.25,0,0,0,294.28,129.91Z"/><path class="cls-1" d="M334,139.32a29.52,29.52,0,0,1-.23-4.31q0-2.92,2.52-23t2.51-27.6q0-7.5-.9-9.75,5.63,1.5,7.69,4.54c1.37,2,2.06,4.89,2.06,8.59q0,3.3-2.18,21.45a257.38,257.38,0,0,0-2.17,29.25q0,2.4.3,6.75-6.83-.3-8.48-3A8.17,8.17,0,0,1,334,139.32Z"/><path class="cls-1" d="M369.47,118.62a111.69,111.69,0,0,0-1.88,17.63c0,4.62.26,7.61.86,9q-5.85-1.5-7.87-4.54t-2-8.89a94.59,94.59,0,0,1,1.2-11.4,95.29,95.29,0,0,0,1.2-12.82,42,42,0,0,0-.45-7c1.1-.1,2.13-.15,3.08-.15q4.35,0,6,1.46c1.12,1,1.68,2.64,1.68,5Q371.3,107.94,369.47,118.62Zm3-24.86a26.48,26.48,0,0,1-3.68.3q-7.72,0-7.72-5.4a18.05,18.05,0,0,1,1.12-5.33,26.48,26.48,0,0,1,3.68-.3q7.73,0,7.72,5.4A18.05,18.05,0,0,1,372.43,93.76Z"/><path class="cls-1" d="M407.6,100.28q.15,1.5.15,2.25c0,2.4-.42,4.07-1.27,5s-2.34,1.39-4.46,1.39-3.77,0-4.92-.08q-2.93,21.3-2.92,30.53c0,2.95.06,5.08.19,6.41s.46,3.59,1,6.79a14.35,14.35,0,0,1-7.95-5.59,16.16,16.16,0,0,1-2.55-9.11q0-7.87,2.25-23.25c.35-2.6.57-4.33.67-5.18a32.9,32.9,0,0,0-8.1,2.55c-.1-1.1-.15-1.92-.15-2.47q0-4,2.48-5.48a15,15,0,0,1,7.12-1.5,55.74,55.74,0,0,1,4-12.67,25.05,25.05,0,0,1,5.51-8q5.7-5.25,11.92-5.25a10.4,10.4,0,0,1,7.09,2.52,7.82,7.82,0,0,1,2.89,6.15,9.07,9.07,0,0,1-2.48,6.33,8.42,8.42,0,0,1-6.52,2.7,9.27,9.27,0,0,1-3.08-.52A11.1,11.1,0,0,0,412,86.37a5,5,0,0,0-.86-3.11,2.76,2.76,0,0,0-2.29-1.13c-2.05,0-4.14,1.72-6.26,5.14s-3.72,8.59-4.77,15.49Q404.53,102.76,407.6,100.28Z"/><path class="cls-1" d="M422.3,129.91a11,11,0,0,0,1.32,5.73,4.09,4.09,0,0,0,3.71,2.22q3.53,0,6.71-4.13a31.84,31.84,0,0,0,5.1-10.57,43,43,0,0,0,1.91-12.27,79,79,0,0,0-.45-9.41q2.25-.15,3.15-.15a9.75,9.75,0,0,1,5.78,1.43q2,1.42,2,5.1,0,1.42-1.8,11.58a98.43,98.43,0,0,0-1.8,16.28,24.23,24.23,0,0,0,2.32,10.84q-5.62-1-8.25-4.17t-2.62-9.18q0-1.05.3-4.05a22.64,22.64,0,0,1-7.2,11.47Q427.26,145,422.27,145a9.88,9.88,0,0,1-8-3.71q-3-3.71-3-10.54a37,37,0,0,1,2.44-13.23A28.06,28.06,0,0,1,421,106.62a15.76,15.76,0,0,1,10.88-4.46,16.85,16.85,0,0,1,7.05,1.65q-7.58,2.7-12.08,10.61A31.25,31.25,0,0,0,422.3,129.91Z"/><g id="butterfy"><g id="wings"><path class="cls-1" d="M47.11,41.77c-2.25-.59-4.43-1.24-6.57-1.76-1.07-.26-2.12-.5-3.14-.65a10.49,10.49,0,0,0-2.78-.15,1.64,1.64,0,0,0-.79.25c-.12.1,0,.14.13.1s.13,0,.14.17,0,.51.12.87a15.66,15.66,0,0,0,.71,2.53c.31.92.69,1.86,1.11,2.81,1.65,3.8,3.69,7.67,5.47,11.68s3.47,8.19,5.3,12.29c.88,2.07,1.88,4.08,2.8,6.14s1.4,4.38,2.6,6.28a12,12,0,0,0,1,1.16,2.4,2.4,0,0,0,.46.34c.07,0,.09,0,.06,0a.34.34,0,0,0-.25,0c-.16,0-.08,0,0-.17a5,5,0,0,0,.15-.61,11.45,11.45,0,0,0,.17-1.5A55.43,55.43,0,0,0,53.74,75c-.48-8.91-1.5-17.94-1.58-27.16a111.1,111.1,0,0,1,.68-14,55.68,55.68,0,0,1,3.6-14.58,29.52,29.52,0,0,1,4.5-7.53,21.22,21.22,0,0,1,3.73-3.49A16.78,16.78,0,0,1,67,6.76l1.66-.82a72.38,72.38,0,0,1,6.89-2.88,65.41,65.41,0,0,1,7.33-2,49,49,0,0,1,7.71-1,40.74,40.74,0,0,1,7.94.33,42.57,42.57,0,0,1,7.84,1.86,40.38,40.38,0,0,1,13.72,8.1A44.62,44.62,0,0,1,125.44,16a60.51,60.51,0,0,1,7.72,12.65c1,2.24,1.89,4.33,2.73,6.46s1.63,4.28,2.4,6.45q2.33,6.48,4.06,13.21A99.65,99.65,0,0,1,145,68.5a41.21,41.21,0,0,1-.56,14.62A17,17,0,0,1,143,86.9a9.6,9.6,0,0,1-.54.92,7.78,7.78,0,0,1-.64.9,11.38,11.38,0,0,1-1.5,1.58,26.39,26.39,0,0,1-3,2.23c-1,.66-2,1.26-3,1.85-3.94,2.33-8,4.32-11.55,6.71a29.54,29.54,0,0,0-2.51,1.83,6.43,6.43,0,0,0-1.57,1.73c-.07.21,0,0-.08-.05s.18.23.51.45a10.31,10.31,0,0,0,2.58,1.15c4,1.23,8.59,1.36,13.21,2a31.17,31.17,0,0,1,7.2,1.72A16.49,16.49,0,0,1,146,112a10.78,10.78,0,0,1,2,1.88,9.29,9.29,0,0,1,.9,1.3q.21.36.39.75a7.67,7.67,0,0,1,.31.76,18.87,18.87,0,0,1,.63,8.8A30.6,30.6,0,0,1,148,133a34.57,34.57,0,0,1-3.71,6.61,29.45,29.45,0,0,1-5.16,5.68c-1,.86-2,1.57-3,2.26s-2,1.36-3.13,2a31.86,31.86,0,0,1-7,2.87,24.16,24.16,0,0,1-15-.7,35.83,35.83,0,0,1-11.93-7.88,68.54,68.54,0,0,1-8.73-10.62,107.7,107.7,0,0,1-6.83-11.67c2.75,3.55,5.55,7,8.54,10.33a71.12,71.12,0,0,0,9.58,9,31.61,31.61,0,0,0,11,5.75,18.91,18.91,0,0,0,11.42-.48,25,25,0,0,0,5.24-2.68c.83-.55,1.65-1.14,2.45-1.77a21.78,21.78,0,0,0,2.21-2,27.53,27.53,0,0,0,5.93-9.86,23.44,23.44,0,0,0,1.23-5.45,9.81,9.81,0,0,0-.45-4.47c0-.1,0,0,0,0s0,0,0,0,0,0-.06-.07a5.81,5.81,0,0,0-.44-.44,12.61,12.61,0,0,0-1.92-1.3c-1.58-.91-3.49-1.82-5.45-2.73s-4.06-1.78-6.17-2.63-4.27-1.65-6.48-2.6a18.56,18.56,0,0,1-3.43-1.79,7.21,7.21,0,0,1-.9-.73,4.65,4.65,0,0,1-.92-1.2,3.86,3.86,0,0,1-.43-1.74,4.51,4.51,0,0,1,.3-1.56,7.44,7.44,0,0,1,1.25-2,15.34,15.34,0,0,1,1.39-1.4,33.1,33.1,0,0,1,2.83-2.22c3.83-2.65,7.7-4.93,11.33-7.38a31.14,31.14,0,0,0,4.87-3.83,4.81,4.81,0,0,0,.4-.47,2.14,2.14,0,0,0,.32-.45,2.72,2.72,0,0,0,.29-.5,3.47,3.47,0,0,0,.26-.55,11,11,0,0,0,.73-2.55c.61-3.73,0-8-.83-12.09a92.48,92.48,0,0,0-3.74-12.31c-1.53-4.06-3.25-8.06-5.07-12-.9-2-1.85-4-2.83-5.92l-1.45-2.95c-.49-1-1-1.85-1.46-2.78-4-7.22-9.29-13.35-15.76-16.55S93.47,13.7,86,15.41a62.42,62.42,0,0,0-11.14,3.81l-1.37.63c-.17.08-.34.18-.53.29a5.48,5.48,0,0,0-1.23,1A15.22,15.22,0,0,0,69.19,25a56.85,56.85,0,0,0-4,11.13c-1.08,4.05-2,8.29-2.83,12.6s-1.61,8.69-2.34,13.11L57.94,75.21c-.4,2.25-.76,4.5-1.37,6.8A15.19,15.19,0,0,1,56,83.78a6,6,0,0,1-.47,1,2.57,2.57,0,0,1-1.16,1,1.79,1.79,0,0,1-1.07,0,2.32,2.32,0,0,1-.69-.37,3.88,3.88,0,0,1-.74-.82A9.22,9.22,0,0,1,51.05,83c-1-2-2.78-3.54-4.19-5.31s-2.67-3.62-4-5.42c-2.72-3.61-5.52-7.2-8-11.08a57.27,57.27,0,0,1-5.92-12.62,25.21,25.21,0,0,1-1.37-7.66,10.08,10.08,0,0,1,.34-2.48,6.26,6.26,0,0,1,1.55-2.83,5.57,5.57,0,0,1,3-1.57A7.15,7.15,0,0,1,35,34a13.59,13.59,0,0,1,3.77,1.31,26.83,26.83,0,0,1,3.08,1.87A36.49,36.49,0,0,1,47.11,41.77Z"/></g><g id="antenna"><path class="cls-1" d="M6.58,87.06A10.34,10.34,0,0,1,4.5,85.49,4.73,4.73,0,0,1,3,82.9,3,3,0,0,1,3.37,81a3.81,3.81,0,0,1,1.31-1.31,7.51,7.51,0,0,1,2.87-1,16.51,16.51,0,0,1,5.41.22,19.11,19.11,0,0,1,5,1.62,41.28,41.28,0,0,1,8.31,6,9.94,9.94,0,0,0,1.93,1.33,2.42,2.42,0,0,0,.46.17c.16.07.19,0,0,.1s0,.08-.09-.06a4,4,0,0,0-.15-.46,10.67,10.67,0,0,0-1.16-2c-.45-.67-1-1.3-1.46-1.94-1-1.26-2.13-2.47-3.19-3.7l-3.19-3.69c-2.15-2.43-4.39-4.77-6.59-7a33.87,33.87,0,0,0-3.31-3.06l-.39-.27a3.07,3.07,0,0,0-.38-.21c-.32-.13-.64-.3-1-.42a9.05,9.05,0,0,0-2-.54,6.86,6.86,0,0,0-2,0,3.75,3.75,0,0,0-1.62.72,1.88,1.88,0,0,0-.67,1.55A4.56,4.56,0,0,0,2.32,69l-.27.3a4.76,4.76,0,0,1-1.82-2,3.45,3.45,0,0,1,.32-3.11,5.35,5.35,0,0,1,2.42-2,8.08,8.08,0,0,1,2.91-.62,11.49,11.49,0,0,1,2.88.27c.46.11.91.26,1.36.39a6.16,6.16,0,0,1,.75.3c.24.11.47.23.68.35a22.92,22.92,0,0,1,4.24,3.29,57.45,57.45,0,0,1,6.54,7.73c1,1.35,2,2.72,2.84,4.15s1.67,2.92,2.44,4.42a35.25,35.25,0,0,1,2.06,4.71,3.25,3.25,0,0,1,.15.73,2.38,2.38,0,0,1,0,.47c0,.1,0,.21-.08.31a1.85,1.85,0,0,1-.23.34,1,1,0,0,1-.71.28,1.62,1.62,0,0,1-.48-.07,3.67,3.67,0,0,1-.69-.28,21.42,21.42,0,0,1-2.18-1.4,29.23,29.23,0,0,0-8.75-3.88c-1.5-.45-3-.88-4.48-1.24a19.52,19.52,0,0,0-4.4-.59A6.39,6.39,0,0,0,6,82.05c-.5.21-.69.29-.8.73a3.54,3.54,0,0,0,.47,1.89,19,19,0,0,0,1.22,2.1Z"/></g><path id="body" class="cls-1" d="M41.24,99.75c3.1,2.09,5.5-3.82,7.29-2.45s7.41,12.52,14.15,16.75,5.5,6,6.6,9.1,3.22,9.54,5.51,12.36c6.75,8.31,14.55,15.87,4.49-4.82-4.42-9.09-5.06-17.82-11.84-24.8S52.29,91.51,42,90.65c-4.06-.34-6.5-.54-4.61,3A53.78,53.78,0,0,0,41.24,99.75Z"/></g></g></g></svg>